{
    "asset" : {
        "generator" : "Khronos glTF Blender I/O v1.8.19",
        "version" : "2.0"
    },
    "scene" : 0,
    "scenes" : [
        {
            "name" : "Scene",
            "nodes" : [
                0
            ]
        }
    ],
    "nodes" : [
        {
            "mesh" : 0,
            "name" : "barrel"
        }
    ],
    "materials" : [
        {
            "doubleSided" : true,
            "name" : "barrel_plank",
            "pbrMetallicRoughness" : {
                "baseColorTexture" : {
                    "index" : 0
                },
                "metallicFactor" : 0,
                "roughnessFactor" : 0.9420289993286133
            }
        },
        {
            "doubleSided" : true,
            "name" : "barrel_interior",
            "pbrMetallicRoughness" : {
                "baseColorFactor" : [
                    0,
                    0,
                    0,
                    1
                ],
                "metallicFactor" : 0
            }
        },
        {
            "doubleSided" : true,
            "name" : "barrel_metal",
            "pbrMetallicRoughness" : {
                "baseColorTexture" : {
                    "index" : 1
                },
                "metallicFactor" : 0.5642378330230713,
                "roughnessFactor" : 0.4410167634487152
            }
        }
    ],
    "meshes" : [
        {
            "name" : "barrel",
            "primitives" : [
                {
                    "attributes" : {
                        "POSITION" : 0,
                        "NORMAL" : 1,
                        "TEXCOORD_0" : 2
                    },
                    "indices" : 3,
                    "material" : 0
                },
                {
                    "attributes" : {
                        "POSITION" : 4,
                        "NORMAL" : 5,
                        "TEXCOORD_0" : 6
                    },
                    "indices" : 7,
                    "material" : 1
                },
                {
                    "attributes" : {
                        "POSITION" : 8,
                        "NORMAL" : 9,
                        "TEXCOORD_0" : 10
                    },
                    "indices" : 11,
                    "material" : 2
                }
            ]
        }
    ],
    "textures" : [
        {
            "sampler" : 0,
            "source" : 0
        },
        {
            "sampler" : 0,
            "source" : 1
        }
    ],
    "images" : [
        {
            "bufferView" : 4,
            "mimeType" : "image/jpeg",
            "name" : "barrel_plank"
        },
        {
            "bufferView" : 13,
            "mimeType" : "image/jpeg",
            "name" : "barrel_metal"
        }
    ],
    "accessors" : [
        {
            "bufferView" : 0,
            "componentType" : 5126,
            "count" : 1073,
            "max" : [
                0.4860427677631378,
                1.0739153623580933,
                0.48604315519332886
            ],
            "min" : [
                -0.48604321479797363,
                0.0004671040514949709,
                -0.486042857170105
            ],
            "type" : "VEC3"
        },
        {
            "bufferView" : 1,
            "componentType" : 5126,
            "count" : 1073,
            "type" : "VEC3"
        },
        {
            "bufferView" : 2,
            "componentType" : 5126,
            "count" : 1073,
            "type" : "VEC2"
        },
        {
            "bufferView" : 3,
            "componentType" : 5123,
            "count" : 4170,
            "type" : "SCALAR"
        },
        {
            "bufferView" : 5,
            "componentType" : 5126,
            "count" : 384,
            "max" : [
                0.44453516602516174,
                1.0063594579696655,
                0.4445355534553528
            ],
            "min" : [
                -0.44453561305999756,
                0.050405099987983704,
                -0.4445352852344513
            ],
            "type" : "VEC3"
        },
        {
            "bufferView" : 6,
            "componentType" : 5126,
            "count" : 384,
            "type" : "VEC3"
        },
        {
            "bufferView" : 7,
            "componentType" : 5126,
            "count" : 384,
            "type" : "VEC2"
        },
        {
            "bufferView" : 8,
            "componentType" : 5123,
            "count" : 1578,
            "type" : "SCALAR"
        },
        {
            "bufferView" : 9,
            "componentType" : 5126,
            "count" : 2052,
            "max" : [
                0.4927496612071991,
                1.0533987283706665,
                0.49275001883506775
            ],
            "min" : [
                -0.4927500784397125,
                0.022654546424746513,
                -0.49274975061416626
            ],
            "type" : "VEC3"
        },
        {
            "bufferView" : 10,
            "componentType" : 5126,
            "count" : 2052,
            "type" : "VEC3"
        },
        {
            "bufferView" : 11,
            "componentType" : 5126,
            "count" : 2052,
            "type" : "VEC2"
        },
        {
            "bufferView" : 12,
            "componentType" : 5123,
            "count" : 6048,
            "type" : "SCALAR"
        }
    ],
    "bufferViews" : [
        {
            "buffer" : 0,
            "byteLength" : 12876,
            "byteOffset" : 0
        },
        {
            "buffer" : 0,
            "byteLength" : 12876,
            "byteOffset" : 12876
        },
        {
            "buffer" : 0,
            "byteLength" : 8584,
            "byteOffset" : 25752
        },
        {
            "buffer" : 0,
            "byteLength" : 8340,
            "byteOffset" : 34336
        },
        {
            "buffer" : 0,
            "byteLength" : 65013,
            "byteOffset" : 42676
        },
        {
            "buffer" : 0,
            "byteLength" : 4608,
            "byteOffset" : 107692
        },
        {
            "buffer" : 0,
            "byteLength" : 4608,
            "byteOffset" : 112300
        },
        {
            "buffer" : 0,
            "byteLength" : 3072,
            "byteOffset" : 116908
        },
        {
            "buffer" : 0,
            "byteLength" : 3156,
            "byteOffset" : 119980
        },
        {
            "buffer" : 0,
            "byteLength" : 24624,
            "byteOffset" : 123136
        },
        {
            "buffer" : 0,
            "byteLength" : 24624,
            "byteOffset" : 147760
        },
        {
            "buffer" : 0,
            "byteLength" : 16416,
            "byteOffset" : 172384
        },
        {
            "buffer" : 0,
            "byteLength" : 12096,
            "byteOffset" : 188800
        },
        {
            "buffer" : 0,
            "byteLength" : 104829,
            "byteOffset" : 200896
        }
    ],
    "samplers" : [
        {
            "magFilter" : 9729,
            "minFilter" : 9987
        }
    ],
    "buffers" : [
        {
            "byteLength" : 305728,
            "uri" : "data:application/octet-stream;base64,"
        }
    ]
}
